<svg width="26" height="30" viewBox="0 0 26 30" fill="none" xmlns="http://www.w3.org/2000/svg">
<rect x="0.5" y="0.5" width="21.1" height="27.7505" rx="1.5" fill="#6699CC" stroke="white"/>
<path d="M3.09961 0.5H18.9996V24.2505C18.9996 25.0789 18.328 25.7505 17.4996 25.7505H4.59961C3.77118 25.7505 3.09961 25.0789 3.09961 24.2505V0.5Z" fill="#6699CC" stroke="white"/>
<line x1="5.70312" y1="3.25" x2="16.4031" y2="3.25" stroke="white" stroke-linecap="round"/>
<line x1="5.70312" y1="7" x2="16.4031" y2="7" stroke="white" stroke-linecap="round"/>
<line x1="5.70312" y1="10.75" x2="16.4031" y2="10.75" stroke="white" stroke-linecap="round"/>
<line x1="5.70312" y1="14.5" x2="16.4031" y2="14.5" stroke="white" stroke-linecap="round"/>
<line x1="5.70312" y1="18.25" x2="16.4031" y2="18.25" stroke="white" stroke-linecap="round"/>
<line x1="5.70312" y1="22" x2="16.4031" y2="22" stroke="white" stroke-linecap="round"/>
<ellipse cx="19.5" cy="23.7501" rx="6.5" ry="6.25012" fill="#6699CC"/>
<ellipse cx="19.4969" cy="23.7501" rx="5.2" ry="5.00009" fill="#6699CC" stroke="white"/>
<path d="M17.6926 24.0178C17.6035 23.924 17.4874 23.8732 17.3676 23.8754C17.2478 23.8776 17.1332 23.9328 17.0467 24.0297C16.9602 24.1267 16.9082 24.2583 16.9012 24.3982C16.8942 24.5382 16.9327 24.676 17.009 24.7841L18.0629 26.0779C18.1071 26.1321 18.1601 26.1752 18.2188 26.2048C18.2776 26.2344 18.3408 26.2498 18.4048 26.2501C18.4684 26.2505 18.5314 26.236 18.5901 26.2074C18.6489 26.1788 18.7021 26.1366 18.7466 26.0835L21.9655 22.1963C22.0091 22.1438 22.0435 22.0818 22.0666 22.0138C22.0898 21.9457 22.1012 21.873 22.1003 21.7998C22.0995 21.7266 22.0863 21.6543 22.0615 21.587C22.0367 21.5197 22.0009 21.4589 21.956 21.4078C21.9111 21.3568 21.858 21.3166 21.7999 21.2895C21.7417 21.2624 21.6795 21.249 21.6169 21.2501C21.5543 21.2511 21.4925 21.2665 21.435 21.2955C21.3775 21.3245 21.3255 21.3664 21.2818 21.4189L18.4095 24.8951L17.6926 24.0178Z" fill="white"/>
</svg>
