<svg width="25" height="30" viewBox="0 0 25 30" fill="none" xmlns="http://www.w3.org/2000/svg">
<mask id="path-1-inside-1_1151_8208" fill="white">
<rect x="4" width="21" height="26" rx="1"/>
</mask>
<rect x="4" width="21" height="26" rx="1" fill="#6699CC" stroke="white" stroke-width="3" mask="url(#path-1-inside-1_1151_8208)"/>
<path d="M1 28.25V4.75C1 4.55109 1.07902 4.36032 1.21967 4.21967C1.36032 4.07902 1.55109 4 1.75 4H16.315C16.5138 4.00018 16.7045 4.07931 16.845 4.22L20.78 8.155C20.85 8.22487 20.9054 8.30789 20.9432 8.39928C20.9809 8.49067 21.0002 8.58862 21 8.6875V28.25C21 28.3485 20.9806 28.446 20.9429 28.537C20.9052 28.628 20.85 28.7107 20.7803 28.7803C20.7107 28.85 20.628 28.9052 20.537 28.9429C20.446 28.9806 20.3485 29 20.25 29H1.75C1.65151 29 1.55398 28.9806 1.46299 28.9429C1.37199 28.9052 1.28931 28.85 1.21967 28.7803C1.15003 28.7107 1.09478 28.628 1.05709 28.537C1.0194 28.446 1 28.3485 1 28.25Z" fill="#6699CC" stroke="white" stroke-width="1.5" stroke-linecap="round" stroke-linejoin="round"/>
<mask id="path-3-inside-2_1151_8208" fill="white">
<path d="M16 4V8.25C16 8.44891 16.079 8.63968 16.2197 8.78033C16.3603 8.92098 16.5511 9 16.75 9H21"/>
</mask>
<path d="M16 4V8.25C16 8.44891 16.079 8.63968 16.2197 8.78033C16.3603 8.92098 16.5511 9 16.75 9H21" fill="#6699CC"/>
<path d="M16 8.25H17.5H16ZM14.5 4V8.25H17.5V4H14.5ZM14.5 8.25C14.5 8.84673 14.7371 9.41903 15.159 9.84099L17.2803 7.71967C17.421 7.86032 17.5 8.05109 17.5 8.25H14.5ZM15.159 9.84099C15.581 10.2629 16.1533 10.5 16.75 10.5V7.5C16.9489 7.5 17.1397 7.57902 17.2803 7.71967L15.159 9.84099ZM16.75 10.5H21V7.5H16.75V10.5Z" fill="white" mask="url(#path-3-inside-2_1151_8208)"/>
</svg>
