<svg width="26" height="34" viewBox="0 0 26 34" fill="none" xmlns="http://www.w3.org/2000/svg">
<path d="M6.75 11.7752H25.2498V30C25.2498 31.7949 23.7947 33.25 21.9998 33.25H10C8.20508 33.25 6.75 31.7949 6.75 30V11.7752Z" fill="#6699CC" stroke="white" stroke-width="1.5"/>
<path d="M21 16.2152L21 28.984L21 16.2152C21 16.0571 21 15.9055 21 15.7937C21 15.6819 21 15.6191 21 15.6191C21 15.6191 21 15.6819 21 15.7937C21 15.9055 21 16.0571 21 16.2152Z" fill="#6699CC"/>
<path d="M21 16.2152L21 28.984V28.984L21 16.2152C21 16.0571 21 15.9055 21 15.7937C21 15.6819 21 15.6191 21 15.6191C21 15.6191 21 15.6819 21 15.7937C21 15.9055 21 16.0571 21 16.2152Z" stroke="white" stroke-width="1.5"/>
<path d="M15.998 16.4315L15.998 29.2003L15.998 16.4315C15.998 16.2734 15.998 16.1218 15.998 16.01C15.998 15.8982 15.998 15.8354 15.998 15.8354C15.998 15.8354 15.998 15.8982 15.998 16.01C15.998 16.1218 15.998 16.2734 15.998 16.4315Z" fill="#6699CC"/>
<path d="M15.998 16.4315L15.998 29.2003V29.2003L15.998 16.4315C15.998 16.2734 15.998 16.1218 15.998 16.01C15.998 15.8982 15.998 15.8354 15.998 15.8354C15.998 15.8354 15.998 15.8982 15.998 16.01C15.998 16.1218 15.998 16.2734 15.998 16.4315Z" stroke="white" stroke-width="1.5"/>
<path d="M11 16.6364L11 29.4052L11 16.6364C11 16.4783 11 16.3267 11 16.2149C11 16.1031 11 16.0403 11 16.0403C11 16.0403 11 16.1031 11 16.2149C11 16.3267 11 16.4783 11 16.6364Z" fill="#6699CC"/>
<path d="M11 16.6364L11 29.4052V29.4052L11 16.6364C11 16.4783 11 16.3267 11 16.2149C11 16.1031 11 16.0403 11 16.0403C11 16.0403 11 16.1031 11 16.2149C11 16.3267 11 16.4783 11 16.6364Z" stroke="white" stroke-width="1.5"/>
<path d="M1.72645 11.5381C1.35921 10.9535 1.55586 10.2173 2.16569 9.89372L15.9526 2.57859C16.5624 2.25502 17.3545 2.4666 17.7217 3.05117L18.7588 4.70192L2.76351 13.1888L1.72645 11.5381Z" fill="#6699CC" stroke="white" stroke-width="1.5"/>
<path d="M3.76552 5.93698C3.39827 5.35241 3.59492 4.61622 4.20475 4.29265L9.33147 1.57248C9.9413 1.24891 10.7334 1.46049 11.1006 2.04506L12.1377 3.69581L4.80258 7.58773L3.76552 5.93698Z" fill="#6699CC" stroke="white" stroke-width="1.5"/>
</svg>
